<svg xmlns="http://www.w3.org/2000/svg" width="960" height="540" viewBox="0 0 960 540">
  <rect width="960" height="540" fill="#fcfbf9"/>
  <rect x="26" y="26" width="908" height="488" fill="#111"/>
  <rect x="26" y="26" width="908" height="44" fill="#c8102e"/>
  <text x="52" y="55" fill="#fff" font-family="Georgia, 'Times New Roman', serif" font-size="20">Godot / Bootstrap.tscn</text>
  <text x="810" y="55" fill="#fff" font-family="monospace" font-size="13">P0 Core Loop</text>

  <g font-family="monospace" font-size="16" fill="#f5f0ea">
    <text x="58" y="112" fill="#c8102e">Bootstrap : Node2D</text>
    <text x="86" y="150">├─ RoomBackground : Sprite2D</text>
    <text x="86" y="184">├─ Camera2D</text>
    <text x="86" y="218">├─ Player : CharacterBody2D</text>
    <text x="118" y="252" fill="#ccc">│  ├─ StateMachine</text>
    <text x="150" y="286" fill="#aaa">│  │  ├─ Idle / Move / Attack / Parry</text>
    <text x="150" y="312" fill="#aaa">│  │  └─ Dodge / Stun / Dead</text>
    <text x="118" y="348" fill="#ccc">│  ├─ HealthComponent</text>
    <text x="118" y="380" fill="#ccc">│  ├─ EnergySystem</text>
    <text x="118" y="412" fill="#ccc">│  └─ OverclockSystem</text>
    <text x="86" y="448">├─ FallenKnight / RustHound : Enemy</text>
    <text x="86" y="476">├─ CrystallizationPoint / Altar</text>
    <text x="86" y="504">└─ EnergyHUD / LightCoreHUD / TalentUI</text>
  </g>

  <rect x="590" y="116" width="270" height="300" fill="none" stroke="#c8102e" stroke-width="2"/>
  <text x="614" y="154" fill="#c8102e" font-family="monospace" font-size="14">已接入系统</text>
  <text x="614" y="196" fill="#f5f0ea" font-family="Georgia, 'Times New Roman', serif" font-size="18">玩家行为</text>
  <text x="614" y="234" fill="#f5f0ea" font-family="Georgia, 'Times New Roman', serif" font-size="18">敌人状态机</text>
  <text x="614" y="272" fill="#f5f0ea" font-family="Georgia, 'Times New Roman', serif" font-size="18">能量 / 超频</text>
  <text x="614" y="310" fill="#f5f0ea" font-family="Georgia, 'Times New Roman', serif" font-size="18">光核 / 祭坛</text>
  <text x="614" y="348" fill="#f5f0ea" font-family="Georgia, 'Times New Roman', serif" font-size="18">天赋入口</text>
  <text x="614" y="388" fill="#aaa" font-family="monospace" font-size="13">Design → Plan → Godot</text>
</svg>
